HIERARCHY
ROOT Hips
{
    OFFSET 0.0 0.0 0.0
    CHANNELS 6 Xposition Yposition Zposition Zrotation Xrotation Yrotation
    JOINT LeftHipJoint
    {
        OFFSET 0.1 0.0 0.0
        CHANNELS 3 Zrotation Xrotation Yrotation
        JOINT LeftUpLeg
        {
            OFFSET 127.92977018678542 0.0 0.0
            CHANNELS 3 Zrotation Xrotation Yrotation
            JOINT LeftLeg
            {
                OFFSET 0.0 0.0 -416.88823505244693
                CHANNELS 3 Zrotation Xrotation Yrotation
                JOINT LeftFoot
                {
                    OFFSET 0.0 0.0 -385.9420302165493
                    CHANNELS 3 Zrotation Xrotation Yrotation
                    End Site
                    {
                        OFFSET 0.0 -0.1 0.0
                    }
                }
            }
        }
    }
    JOINT LowerBack
    {
        OFFSET 0.0 0.0 0.1
        CHANNELS 3 Zrotation Xrotation Yrotation
        JOINT Spine
        {
            OFFSET 0.0 0.0 222.45700798828966
            CHANNELS 3 Zrotation Xrotation Yrotation
            JOINT Spine1
            {
                OFFSET 0.0 0.0 252.15658779956337
                CHANNELS 3 Zrotation Xrotation Yrotation
                JOINT LeftShoulder
                {
                    OFFSET 0.1 0.0 0.0
                    CHANNELS 3 Zrotation Xrotation Yrotation
                    JOINT LeftArm
                    {
                        OFFSET 143.11070934943018 0.0 0.0
                        CHANNELS 3 Zrotation Xrotation Yrotation
                        JOINT LeftForeArm
                        {
                            OFFSET 262.45917615446456 0.0 0.0
                            CHANNELS 3 Zrotation Xrotation Yrotation
                            JOINT LeftHand
                            {
                                OFFSET 231.21049509260376 0.0 0.0
                                CHANNELS 3 Zrotation Xrotation Yrotation
                                End Site
                                {
                                    OFFSET 0.1 0.0 0.0
                                }
                            }
                        }
                    }
                }
                JOINT Neck
                {
                    OFFSET 0.0 0.0 0.1
                    CHANNELS 3 Zrotation Xrotation Yrotation
                    JOINT Neck1
                    {
                        OFFSET 0.0 0.0 97.80916323952368
                        CHANNELS 3 Zrotation Xrotation Yrotation
                        End Site
                        {
                            OFFSET 0.0 0.0 108.61479650297025
                        }
                    }
                }
                JOINT RightShoulder
                {
                    OFFSET -0.1 0.0 0.0
                    CHANNELS 3 Zrotation Xrotation Yrotation
                    JOINT RightArm
                    {
                        OFFSET -143.11070934943018 0.0 0.0
                        CHANNELS 3 Zrotation Xrotation Yrotation
                        JOINT RightForeArm
                        {
                            OFFSET -262.45917615446456 0.0 0.0
                            CHANNELS 3 Zrotation Xrotation Yrotation
                            JOINT RightHand
                            {
                                OFFSET -231.21049509260376 0.0 0.0
                                CHANNELS 3 Zrotation Xrotation Yrotation
                                End Site
                                {
                                    OFFSET -0.1 0.0 0.0
                                }
                            }
                        }
                    }
                }
            }
        }
    }
    JOINT RightHipJoint
    {
        OFFSET -0.1 0.0 0.0
        CHANNELS 3 Zrotation Xrotation Yrotation
        JOINT RightUpLeg
        {
            OFFSET -127.92977018678542 0.0 0.0
            CHANNELS 3 Zrotation Xrotation Yrotation
            JOINT RightLeg
            {
                OFFSET 0.0 0.0 -416.88823505244693
                CHANNELS 3 Zrotation Xrotation Yrotation
                JOINT RightFoot
                {
                    OFFSET 0.0 0.0 -385.9420302165493
                    CHANNELS 3 Zrotation Xrotation Yrotation
                    End Site
                    {
                        OFFSET 0.0 -0.1 0.0
                    }
                }
            }
        }
    }
}
MOTION
Frames: 6
Frame Time: 0.03333333333333333
0.0 0.0 803.7576251345563 22.658161118213286 12.27353845840848 5.657651989394584 0.0 0.0 -7.951386703658792e-16 -1.3167366125980147 -34.023378793970615 -2.688189723694621 -0.16917304270146433 27.17002129158988 2.631140080796743 0.0 0.0 -2.981770013872047e-16 0.0 0.0 -7.951386703658792e-16 0.18588370448345687 5.421271243478069 1.9995251593449852 -5.544929899349835 -5.956559692757301e-16 -2.884550036401953e-17 -3.1805546814635168e-15 3.310429723537619e-32 -1.1927080055488188e-15 -11.78687509577438 -0.08742785297130193 71.36819837670589 -33.63164825898703 -6.2074734928543094e-15 9.545528624826407e-15 0.0 0.0 -9.93923337957349e-16 -3.1805546814635168e-15 3.310429723537619e-32 -1.1927080055488188e-15 6.558519620737316 3.8649915157096775 -8.380977990171552 -3.1805546814635168e-15 3.310429723537619e-32 -1.1927080055488188e-15 62.98724050719613 56.27041523056676 -91.57030929499189 107.01833479604969 -7.390867531548642e-15 -1.1401349245750516e-14 -3.1805546814635168e-15 0.0 0.0 0.0 0.0 -7.951386703658792e-16 -1.1496241578478537 -30.291195717587392 -8.124182570345308 -3.355097434046899 29.723287375716517 2.709114359646345 0.0 0.0 -3.975693351829396e-16
0.0 0.0 803.7576251345563 22.58216830227602 12.266852128400004 5.618600058971282 0.0 0.0 7.951386703658792e-16 -1.3094746705794056 -33.8142878220966 -2.5874110786153453 -0.11676439935855364 27.01222161407078 2.557502189215472 -3.1805546814635168e-15 8.276074308844047e-33 -2.981770013872047e-16 0.0 0.0 7.951386703658792e-16 0.18741824394266013 5.452973066287844 1.979440624634625 -5.501789270971496 -3.3182026242897957e-15 -1.3535206561881277e-15 0.0 0.0 -3.975693351829396e-16 -11.348065388763194 -0.15078416888957086 71.50969200334372 -33.85350689474417 3.993440117880169e-15 -1.3121927798138585e-14 0.0 0.0 -1.1927080055488188e-15 0.0 0.0 -3.975693351829396e-16 6.572203287592772 3.6184479783549595 -8.378607181295092 0.0 0.0 -3.975693351829396e-16 63.01680461457626 56.10686818388968 -91.76641743611025 106.88497202691701 -3.2151887908396796e-15 -6.343674128465013e-15 0.0 0.0 0.0 0.0 0.0 7.951386703658792e-16 -1.1468845308357971 -30.17311644807349 -8.031694547869067 -3.3146323782954417 29.83129975220384 2.6538481562082556 0.0 0.0 0.0
0.0 0.0 803.7576251345563 22.534858824375036 12.215492471606622 5.628285572614293 6.896728590703373e-34 -1.987846675914698e-16 3.975693351829396e-16 -1.2985260206966631 -33.56090478237598 -2.5534762421886024 -0.10116447880532244 26.924346827629186 2.542636883903277 0.0 0.0 -2.981770013872047e-16 6.896728590703373e-34 -1.987846675914698e-16 3.975693351829396e-16 0.18930454117437595 5.5008703287449725 1.9071280448053711 -5.553381370749845 2.0877659751127424e-15 2.0914407169485434e-15 0.0 0.0 -7.951386703658792e-16 -10.813018959945179 -0.5266075974017019 71.58679920180887 -34.12545131922207 7.356764487160041e-15 -1.3129355219756782e-14 0.0 0.0 3.975693351829396e-16 0.0 0.0 -7.951386703658792e-16 6.637324806094264 3.379363963804398 -8.404269050684528 0.0 0.0 -7.951386703658792e-16 63.0394711894335 56.06886368440017 -91.84073968904292 106.67925584871428 -1.2104636543405552e-14 -5.044655740712368e-15 6.361109362927035e-15 -6.361109362927035e-15 3.531125038440127e-31 6.896728590703373e-34 -1.987846675914698e-16 3.975693351829396e-16 -1.1419766223146277 -30.035805943727397 -8.040866375956853 -3.327058815608267 29.88240328564668 2.786979093199504 -3.1805546814635168e-15 -1.6399735076296259e-15 -4.551840869864226e-32
0.0 0.0 803.7576251345563 22.51494951964264 12.09374761576568 5.598808211191784 0.0 0.0 7.951386703658792e-16 -1.2580512731698077 -33.243788670900585 -2.433728732984168 -0.06803640239123451 27.049202887988358 2.528063470975961 0.0 0.0 0.0 0.0 0.0 7.951386703658792e-16 0.18864635184103182 5.588827120456929 1.8612612154274875 -5.6003966319205105 -1.4869439114729034e-15 1.9174942165445723e-15 0.0 0.0 -3.975693351829396e-16 -10.504339427713514 -0.8054601051136794 71.69721170822864 -34.39862718250931 4.055816651562126e-15 -1.3102782315354562e-14 0.0 0.0 2.5842006786891076e-15 0.0 0.0 -3.975693351829396e-16 6.646518546496227 3.1807259017630685 -8.516331352967887 0.0 0.0 -3.975693351829396e-16 63.04818978784222 55.88929575072234 -91.95079951351364 106.60462762336049 -5.100336074163687e-15 -3.8013529509508215e-15 -3.1805546814635168e-15 0.0 0.0 0.0 0.0 7.951386703658792e-16 -1.1092876305656516 -29.79365321181298 -7.966957169050656 -3.3366537247897297 30.061310796504014 2.8530183230588873 0.0 0.0 0.0
0.0 0.0 803.7576251345563 22.48316493681473 12.009859394544613 5.575305708361828 0.0 0.0 0.0 -1.2309218487162747 -33.02461790994896 -2.379884937358635 -0.05931643742201769 27.164460070774513 2.541719838416224 0.0 0.0 -3.975693351829396e-16 0.0 0.0 0.0 0.18688257829662933 5.610868447960075 1.8324632165934875 -5.638156993985213 -2.3043156382776204e-15 -1.70567318253968e-15 0.0 0.0 -2.3854160110976376e-15 -10.176942876823816 -1.0930357600879168 71.74155993798651 -34.86273816489256 -3.5394128701928575e-15 -4.6533137820684745e-15 0.0 0.0 2.3854160110976376e-15 0.0 0.0 -2.3854160110976376e-15 6.7769176927123365 3.0518405134366313 -8.61555200825944 0.0 0.0 -2.3854160110976376e-15 62.9500341438129 55.8617830102574 -92.04428982950242 106.46012908280866 3.5274596940014023e-15 1.6532755257895344e-14 -3.1805546814635168e-15 0.0 0.0 0.0 0.0 0.0 -1.088331058072553 -29.650522923495174 -7.908001227458711 -3.333729996970425 30.154701632254426 2.9053197557554165 0.0 0.0 0.0
0.0 0.0 803.7576251345563 22.4473140786808 11.879279471830472 5.553257654383543 6.207055731633036e-33 -1.789062008323228e-15 3.9756933518293955e-16 -1.179066404576833 -32.94970387268979 -2.2998263007729625 -0.0658344950734978 27.55896500211705 2.55843033357698 0.0 0.0 3.975693351829396e-16 6.207055731633036e-33 -1.789062008323228e-15 3.9756933518293955e-16 0.18382332980987762 5.743121910294342 1.7053343859076087 -5.626693672605214 1.79031406880048e-16 4.068469929811531e-16 -3.1805546814635164e-15 1.987846675914697e-16 1.9878466759146976e-15 -10.01519180408169 -1.3065436357055025 71.83247372872093 -35.26367354289655 -4.9476412475910506e-15 1.0316742750850548e-14 0.0 0.0 2.782985346280577e-15 -3.1805546814635164e-15 1.987846675914697e-16 1.9878466759146976e-15 6.8768337429706365 2.7844228738141594 -8.66794635405697 -3.1805546814635164e-15 1.987846675914697e-16 1.9878466759146976e-15 62.98845331590054 55.72753828325464 -92.37095528183121 106.38405522122837 -6.0458003985370035e-15 -2.5379109299998388e-15 0.0 0.0 0.0 6.207055731633036e-33 -1.789062008323228e-15 3.9756933518293955e-16 -1.0428835600399327 -29.578397602092025 -7.775685538062592 -3.3415035992278983 30.411816780350435 2.8223711337746558 0.0 0.0 0.0
